<?xml version="1.0" standalone="no"?>
<!DOCTYPE svg PUBLIC "-//W3C//DTD SVG 20010904//EN"
 "http://www.w3.org/TR/2001/REC-SVG-20010904/DTD/svg10.dtd">
<svg version="1.0" xmlns="http://www.w3.org/2000/svg"
 width="900.000000pt" height="900.000000pt" viewBox="0 0 900.000000 900.000000"
 preserveAspectRatio="xMidYMid meet">
<metadata>
Created by potrace 1.10, written by Peter Selinger 2001-2011
</metadata>
<g transform="translate(0.000000,900.000000) scale(0.100000,-0.100000)"
fill="#F5F7FA" stroke="none">
<path d="M5350 7401 c-75 -16 -153 -86 -178 -160 -7 -19 -12 -76 -12 -128 l0
-93 53 -33 c28 -19 59 -37 67 -40 8 -4 29 -16 45 -27 17 -11 39 -24 50 -30 11
-5 27 -14 35 -20 86 -57 236 -138 243 -131 5 5 8 120 7 256 -1 221 -3 251 -19
283 -20 39 -57 77 -103 105 -30 19 -137 29 -188 18z"/>
<path d="M6000 7332 c-17 -6 -12 -16 45 -88 63 -78 105 -147 154 -249 18 -38
39 -83 47 -98 8 -16 14 -35 14 -42 0 -8 6 -29 14 -47 52 -124 96 -391 96 -576
-1 -182 -45 -433 -105 -602 -16 -45 -94 -207 -118 -245 -27 -44 -126 -172
-151 -194 -14 -13 -23 -28 -20 -32 3 -5 151 -9 329 -9 351 0 368 2 442 57 63
48 134 161 178 284 88 247 115 423 115 743 0 312 -25 485 -107 736 -40 120
-122 254 -188 304 -64 50 -73 51 -413 56 -177 3 -327 4 -332 2z"/>
<path d="M2295 7309 c-48 -24 -86 -59 -134 -124 -36 -47 -101 -174 -101 -195
0 -5 -6 -24 -14 -42 -35 -83 -69 -238 -92 -421 -18 -144 -15 -515 5 -642 35
-209 71 -347 117 -438 8 -16 14 -32 14 -37 0 -19 77 -137 114 -173 22 -21 64
-50 94 -63 54 -24 58 -24 378 -24 177 0 325 3 328 8 2 4 -15 28 -37 53 -76 83
-75 83 -165 224 -6 11 -15 27 -18 35 -4 8 -17 38 -30 66 -25 55 -53 128 -60
159 -3 11 -11 43 -19 70 -86 315 -76 720 26 1020 6 17 13 39 16 50 3 11 11 35
19 53 8 17 21 49 30 70 16 35 38 79 67 133 24 46 72 115 110 159 75 87 101 80
-275 80 -311 -1 -336 -2 -373 -21z"/>
<path d="M4766 7283 c-45 -7 -132 -68 -160 -110 -35 -55 -44 -113 -50 -333 -4
-107 -11 -276 -18 -375 -10 -164 -10 -185 6 -233 33 -98 117 -152 236 -152
126 0 226 72 258 186 21 73 14 88 -63 136 -65 41 -172 154 -195 205 -17 37
-22 69 -23 138 -1 104 15 145 86 215 48 49 94 71 162 79 l50 6 3 55 c2 48 -1
61 -26 96 -17 23 -48 50 -71 62 -41 22 -140 34 -195 25z"/>
<path d="M4139 7112 c-58 -28 -105 -68 -132 -114 -21 -37 -27 -67 -41 -215 -9
-94 -16 -204 -16 -245 0 -40 -5 -135 -12 -211 -10 -113 -10 -144 2 -175 28
-79 75 -119 168 -142 115 -30 269 48 309 156 15 39 44 501 43 690 0 151 0 151
-29 191 -48 66 -85 83 -177 82 -52 0 -91 -6 -115 -17z"/>
<path d="M3583 6962 c-23 -10 -48 -23 -55 -30 -6 -6 -17 -12 -23 -12 -13 0
-62 -51 -95 -99 -27 -39 -59 -180 -60 -261 0 -30 -7 -98 -15 -150 -19 -126
-19 -256 0 -294 8 -15 15 -34 15 -42 0 -7 22 -35 49 -62 36 -36 64 -53 107
-67 56 -17 62 -18 122 -2 130 34 201 116 202 232 0 33 7 114 15 180 8 66 15
150 15 188 0 37 7 111 15 163 15 88 15 101 0 148 -18 56 -36 82 -77 109 -36
23 -157 22 -215 -1z"/>
<path d="M4980 6923 c-64 -13 -120 -92 -120 -168 0 -118 35 -162 264 -332 99
-74 191 -143 204 -155 24 -21 28 -64 14 -143 -6 -33 -12 -40 -37 -46 -79 -18
-159 -54 -540 -239 -217 -106 -291 -140 -355 -165 -25 -9 -55 -21 -68 -26 -13
-5 -64 -18 -113 -29 -257 -57 -554 19 -801 207 -31 24 -61 43 -67 43 -15 0
-32 -66 -38 -153 -16 -223 122 -435 337 -521 25 -10 52 -21 60 -26 22 -11 24
-81 6 -192 -9 -54 -23 -144 -31 -200 -27 -177 -45 -290 -60 -374 -8 -45 -15
-97 -15 -115 0 -19 -7 -59 -15 -89 -8 -30 -15 -70 -15 -89 0 -18 -7 -70 -15
-115 -8 -44 -22 -126 -30 -181 -27 -170 -46 -286 -60 -380 -33 -210 -47 -295
-61 -373 -8 -45 -13 -90 -10 -100 6 -18 58 -52 81 -52 7 0 39 35 71 78 81 109
226 251 314 309 199 131 440 206 601 187 l55 -6 36 48 c46 63 158 185 228 250
55 52 203 165 230 177 8 4 29 16 45 27 17 10 63 36 103 57 41 20 76 41 79 46
3 5 0 66 -6 135 -22 264 -41 514 -53 701 l-12 194 25 19 c24 19 137 99 180
128 145 97 329 252 329 276 0 4 6 15 13 23 24 29 46 124 62 271 9 80 23 195
31 255 9 61 16 167 17 236 l2 127 -41 48 c-37 44 -65 66 -119 94 -11 6 -33 19
-50 30 -16 11 -37 23 -45 27 -8 4 -58 32 -110 63 -52 31 -102 59 -110 63 -8 4
-28 16 -45 27 -16 11 -39 24 -50 30 -11 6 -29 16 -40 23 -108 65 -120 69 -174
72 -31 2 -67 1 -81 -2z"/>
<path d="M1736 6901 c-51 -34 -74 -110 -111 -371 -37 -255 0 -780 63 -909 27
-54 76 -81 149 -81 34 0 65 5 68 10 4 6 0 29 -8 53 -19 54 -42 164 -62 302
-13 87 -16 163 -13 360 5 295 20 418 74 588 8 26 12 52 9 57 -11 18 -137 12
-169 -9z"/>
<path d="M7084 6893 c4 -16 11 -46 15 -68 5 -22 13 -60 19 -85 6 -25 18 -92
27 -150 21 -145 21 -575 -1 -709 -21 -130 -44 -238 -61 -284 -7 -21 -11 -43
-8 -48 4 -5 34 -9 68 -9 73 1 121 23 143 65 21 39 53 162 54 200 0 17 7 62 15
100 11 51 15 138 15 319 0 276 -5 325 -64 598 -4 15 -23 43 -43 63 -35 34 -39
35 -111 35 l-74 0 6 -27z"/>
<path d="M2795 6436 c-39 -42 -45 -68 -45 -210 0 -88 4 -120 20 -153 30 -66
56 -73 287 -73 l195 0 -6 33 c-16 84 -24 222 -17 317 4 58 6 108 4 113 -2 4
-95 7 -205 7 l-201 0 -32 -34z"/>
<path d="M5958 6365 c3 -75 0 -138 -13 -219 -10 -63 -15 -121 -12 -130 5 -13
23 -16 95 -16 174 0 202 33 202 240 0 101 -4 138 -16 162 -31 60 -49 67 -160
68 l-102 0 6 -105z"/>
<path d="M5985 4583 c-292 -105 -526 -356 -608 -653 -41 -150 -56 -318 -37
-425 6 -38 14 -97 17 -130 l5 -61 -59 -79 c-59 -79 -201 -223 -242 -244 -17
-10 -22 -9 -28 5 -3 9 -1 19 5 23 13 8 95 170 117 231 57 157 63 375 16 539
-18 62 -59 50 -208 -61 -181 -134 -327 -313 -406 -495 -49 -115 -70 -231 -64
-352 3 -58 7 -117 9 -130 3 -20 -4 -26 -52 -41 -86 -29 -196 -48 -307 -55 -96
-6 -103 -5 -103 13 0 10 11 25 25 32 66 36 203 204 252 310 67 145 104 316 73
335 -11 7 -142 -21 -188 -41 -18 -8 -37 -14 -42 -14 -20 0 -147 -65 -220 -112
-124 -79 -291 -267 -349 -393 -21 -47 -38 -51 -94 -21 -29 15 -65 36 -82 46
-16 11 -37 23 -45 27 -59 27 -219 172 -308 281 -42 51 -44 52 -95 52 -54 -1
-77 -13 -110 -60 -38 -55 -10 -114 111 -238 80 -80 185 -168 222 -185 8 -4 29
-16 45 -27 36 -23 154 -81 210 -103 229 -90 478 -115 787 -81 l56 6 79 -58
c43 -33 87 -64 98 -71 41 -25 151 -76 180 -84 17 -4 44 -12 60 -18 123 -42
348 -55 458 -26 32 8 67 15 77 15 41 0 248 97 265 125 8 12 -3 28 -55 79 -131
128 -295 217 -460 250 -39 8 -56 16 -58 29 -2 9 4 19 12 22 33 10 43 16 122
67 l41 26 49 -23 c27 -13 89 -33 137 -44 312 -74 660 50 887 316 76 88 73 94
-85 155 -118 46 -315 62 -425 34 -91 -23 -119 -26 -126 -15 -6 11 33 59 49 59
12 0 113 79 167 131 49 47 132 144 140 162 3 7 16 30 31 52 27 43 77 146 102
210 72 189 97 441 62 608 -9 40 -18 82 -21 95 -5 26 -28 27 -89 5z"/>
</g>
</svg>
